<?xml version="1.0" encoding="UTF-8" standalone="no"?>
<svg
   viewBox="0 0 18 18"
   version="1.1"
   id="svg1021"
   sodipodi:docname="clock.svg"
   inkscape:version="1.1 (c68e22c387, 2021-05-23)"
   width="18"
   height="18"
   xmlns:inkscape="http://www.inkscape.org/namespaces/inkscape"
   xmlns:sodipodi="http://sodipodi.sourceforge.net/DTD/sodipodi-0.dtd"
   xmlns="http://www.w3.org/2000/svg"
   xmlns:svg="http://www.w3.org/2000/svg">
  <defs
     id="defs1025" />
  <sodipodi:namedview
     id="namedview1023"
     pagecolor="#ffffff"
     bordercolor="#666666"
     borderopacity="1.0"
     inkscape:pageshadow="2"
     inkscape:pageopacity="0.0"
     inkscape:pagecheckerboard="0"
     showgrid="false"
     inkscape:zoom="2.0080728"
     inkscape:cx="32.369344"
     inkscape:cy="195.95903"
     inkscape:window-width="1900"
     inkscape:window-height="1010"
     inkscape:window-x="10"
     inkscape:window-y="60"
     inkscape:window-maximized="1"
     inkscape:current-layer="svg1021"
     fit-margin-top="0"
     fit-margin-left="0"
     fit-margin-right="0"
     fit-margin-bottom="0" />
  <!--! Font Awesome Free 6.0.0-beta3 by @fontawesome - https://fontawesome.com License - https://fontawesome.com/license/free (Icons: CC BY 4.0, Fonts: SIL OFL 1.1, Code: MIT License) Copyright 2021 Fonticons, Inc. -->
  <path
     d="M 9,18 C 4.028907,18 0,13.971094 0,9 0,4.0289062 4.028907,0 9,0 c 4.971093,0 9,4.0289062 9,9 0,4.971094 -4.028907,9 -9,9 z M 8.1562496,9 c 0,0.28125 0.1406254,0.5449219 0.3761737,0.6714844 l 3.3749997,2.2499996 c 0.38672,0.288282 0.910549,0.182813 1.139063,-0.203906 0.28828,-0.386719 0.182811,-0.910547 -0.203909,-1.170703 L 9.8437496,8.55 V 4.21875 c 0,-0.4675781 -0.3761729,-0.84375 -0.8753895,-0.84375 -0.4359368,0 -0.8437507,0.3761719 -0.8437507,0.84375 z"
     id="path1019"
     style="fill:#acb4c1;fill-opacity:1;stroke-width:0.0351561" />
</svg>
