<?xml version="1.0" encoding="UTF-8" standalone="no"?>
<svg
   viewBox="0 0 576 576"
   version="1.1"
   id="svg1218"
   sodipodi:docname="memory.svg"
   inkscape:version="1.1 (c68e22c387, 2021-05-23)"
   inkscape:export-filename="/home/will/.config/taffybar/icons/memory.png"
   inkscape:export-xdpi="3"
   inkscape:export-ydpi="3"
   width="576"
   height="576"
   xmlns:inkscape="http://www.inkscape.org/namespaces/inkscape"
   xmlns:sodipodi="http://sodipodi.sourceforge.net/DTD/sodipodi-0.dtd"
   xmlns="http://www.w3.org/2000/svg"
   xmlns:svg="http://www.w3.org/2000/svg">
  <defs
     id="defs1222" />
  <sodipodi:namedview
     id="namedview1220"
     pagecolor="#ffffff"
     bordercolor="#666666"
     borderopacity="1.0"
     inkscape:pageshadow="2"
     inkscape:pageopacity="0.0"
     inkscape:pagecheckerboard="0"
     showgrid="false"
     inkscape:zoom="1.0040364"
     inkscape:cx="260.94671"
     inkscape:cy="286.3442"
     inkscape:window-width="1900"
     inkscape:window-height="1060"
     inkscape:window-x="10"
     inkscape:window-y="10"
     inkscape:window-maximized="1"
     inkscape:current-layer="svg1218" />
  <!--! Font Awesome Free 6.0.0-beta3 by @fontawesome - https://fontawesome.com License - https://fontawesome.com/license/free (Icons: CC BY 4.0, Fonts: SIL OFL 1.1, Code: MIT License) Copyright 2021 Fonticons, Inc. -->
  <path
     d="m 0,480 h 80 v -32 c 0,-8.838 7.164,-16 16,-16 8.838,0 16,7.162 16,16 v 32 h 96 v -32 c 0,-8.838 7.164,-16 16,-16 8.838,0 16,7.162 16,16 v 32 h 96 v -32 c 0,-8.838 7.164,-16 16,-16 8.838,0 16,7.162 16,16 v 32 h 96 v -32 c 0,-8.838 7.164,-16 16,-16 8.838,0 16,7.162 16,16 v 32 h 80 V 384 H 0 Z M 576,178.9 V 144 C 576,117.49 554.5,96 528,96 H 48 C 21.49,96 0,117.49 0,144 v 34.94 C 18.6,185.5 32,203.1 32,224 32,244.9 18.6,262.5 0,269.1 V 352 h 576 v -82.9 c -18.6,-6.6 -32,-24.2 -32,-45.1 0,-20.9 13.4,-38.5 32,-45.1 z M 192,272 c 0,8.8 -7.2,16 -16,16 h -32 c -8.8,0 -16,-7.2 -16,-16 v -96 c 0,-8.8 7.2,-16 16,-16 h 32 c 8.8,0 16,7.2 16,16 z m 128,0 c 0,8.8 -7.2,16 -16,16 h -32 c -8.8,0 -16,-7.2 -16,-16 v -96 c 0,-8.8 7.2,-16 16,-16 h 32 c 8.8,0 16,7.2 16,16 z m 128,0 c 0,8.8 -7.2,16 -16,16 h -32 c -8.8,0 -16,-7.2 -16,-16 v -96 c 0,-8.8 7.2,-16 16,-16 h 32 c 8.8,0 16,7.2 16,16 z"
     id="path1216"
     style="fill:#acb4c1;fill-opacity:1;stroke-width:1" />
</svg>
